<svg xmlns="http://www.w3.org/2000/svg" viewBox="0 0 50 50"><defs><style>.a{fill:#fff;}</style></defs><rect fill="#222" class="a" x="8.5" y="14.85" width="33" height="20.29" rx="1.5"/><path d="M40,16.35v17.3H10V16.35H40m0-3H10a3,3,0,0,0-3,3v17.3a3,3,0,0,0,3,3H40a3,3,0,0,0,3-3V16.35a3,3,0,0,0-3-3Z"/><path d="M32.5,42h-15c-.55,0-1-.67-1-1.5S17,39,17.5,39h15c.55,0,1,.67,1,1.5S33.05,42,32.5,42Z"/><path d="M22,21.07v7.86a1,1,0,0,0,1.46.81l6.26-3.93a1,1,0,0,0,0-1.62l-6.26-3.93A1,1,0,0,0,22,21.07Z"/></svg>